<?xml version="1.0" encoding="UTF-8"?>
<svg id="Layer_1" data-name="Layer 1" xmlns="http://www.w3.org/2000/svg" viewBox="0 0 520 520">
  <defs>
    <style>
      .cls-1 {
        fill: #ed1e25;
      }
    </style>
  </defs>
  <path class="cls-1" d="M260.83,162.68c-53.91,0-97.6,43.69-97.6,97.58s43.69,97.58,97.6,97.58,97.58-43.67,97.58-97.58-43.69-97.58-97.58-97.58Z"/>
  <path d="M487.8,165.96c-13.01-30-30.77-56.24-53.26-78.75-22.51-22.49-48.76-40.35-78.75-53.6-30.01-13.23-61.77-19.85-95.29-19.85s-65.84,6.62-95.63,19.85c-29.78,13.25-55.81,31.11-78.09,53.6-22.28,22.51-39.94,48.76-52.94,78.75-13.01,30.02-19.53,61.77-19.53,95.3s6.52,65.84,19.53,95.61c13,29.78,30.66,55.83,52.94,78.09,2.84,2.84,5.91,5.37,8.85,8.04v-182.74h.14c.13-23.01,4.36-44.64,12.84-64.84,8.62-20.52,20.29-38.49,35.08-53.94,14.78-15.44,32.21-27.55,52.27-36.39,20.07-8.83,41.58-13.25,64.54-13.25s44.43,4.41,64.52,13.25c20.07,8.83,37.61,20.95,52.62,36.39,14.99,15.46,26.89,33.43,35.72,53.94,8.83,20.5,13.25,42.46,13.25,65.85s-4.31,45.33-12.91,65.84c-8.62,20.5-20.3,38.38-35.08,53.6-14.79,15.2-32.2,27.23-52.29,36.06-20.07,8.83-41.36,13.23-63.85,13.23s-45.11-4.4-65.18-13.23c-12.3-5.41-23.59-12.18-34.07-20v90c.58.24,1.09.56,1.65.8,29.78,12.8,61.65,19.19,95.63,19.19s65.27-6.39,95.29-19.19c30-12.78,56.24-30.32,78.75-52.61,22.49-22.26,40.25-48.31,53.26-78.09,13.01-29.76,19.53-61.64,19.53-95.61s-6.52-65.29-19.53-95.3Z"/>
</svg>